{"title":"BALADAS METAL","uid":13292282,"size":5900396544,"categoryP":"video","categoryS":"music_videos","magnet":"?xt=urn:btih:d80f7fba8d7a9e5b90b44fb217439bfda0834f88&amp;dn=BALADAS+METAL&amp;tr=udp%3A%2F%2Ftracker.leechers-paradise.org%3A6969&amp;tr=udp%3A%2F%2Fzer0day.ch%3A1337&amp;tr=udp%3A%2F%2Fopen.demonii.com%3A1337&amp;tr=udp%3A%2F%2Ftracker.coppersurfer.tk%3A6969&amp;tr=udp%3A%2F%2Fexodus.desync.com%3A6969","seeders":0,"leechers":0,"uploader":"crazyteacher","files":1,"time":1453594986,"description":"General\r\n\r\n\r\nFormat                      : MPEG-PS\r\nFile size                   : 5.50 GiB\r\nDuration                    : 1h 52mn\r\nOverall bit rate mode       : Variable\r\nOverall bit rate            : 7 005 Kbps\r\n\r\nVideo\r\nID                          : 224 (0xE0)\r\nFormat                      : MPEG Video\r\nFormat version              : Version 2\r\nFormat profile              :   \r\nFormat settings, BVOP       : Yes\r\nFormat settings, Matrix     : Default\r\nFormat settings, GOP        : Variable\r\nFormat settings, picture st : Frame\r\nDuration                    : 1h 52mn\r\nBit rate mode               : Variable\r\nBit rate                    : 6 641 Kbps\r\nMaximum bit rate            : 9 500 Kbps\r\nWidth                       : 720 pixels\r\nHeight                      : 576 pixels\r\nDisplay aspect ratio        : 16:9\r\nFrame rate                  : 29.970 fps\r\nColor space                 : YUV\r\nChroma subsampling          : 4:2:0\r\nBit depth                   : 8 bits\r\nScan type                   : Interlaced\r\nScan order                  : Bottom Field First\r\nCompression mode            : Lossy\r\nBits/(Pixel*Frame)          : 0.534\r\nTime code of first frame    : 00:00:00:00\r\nTime code source            : Group of pictures header\r\nGOP, Open/Closed            : Open\r\nGOP, Open/Closed of first f : Closed\r\nStream size                 : 5.21 GiB (95%)\r\n\r\nAudio\r\nID                          : 192 (0xC0)\r\nFormat                      : MPEG Audio\r\nFormat version              : Version 1\r\nFormat profile              : Layer 2\r\nDuration                    : 1h 52mn\r\nBit rate mode               : Constant\r\nBit rate                    : 224 Kbps\r\nChannel(s)                  : 2 channels\r\nSampling rate               : 48.0 KHz\r\nCompression mode            : Lossy\r\nStream size                 : 180 MiB (3%)\r\n\r\nVIDEOS:\r\n\r\n00:00:00 - Deep Purple - Soldier of fortune\r\n00:03:20 - Dokken - Alone again\r\n00:07:29 - Europe - Carrie\r\n00:12:04 . Gary moore - Still got the blues\r\n00:16:14 - Gun´s roses - Don´t cry\r\n00:21:26 - Iron Maiden - Wasting love\r\n00:27:16 - Axel Rudi Pell - Sea of evil\r\n00:35:42 - Ozzy Osbourne &amp; Lita Ford - If i close my eyes\r\n00:40:27 - Metallica - Nothing else matter\r\n00:46:56 - Poison - Every rose has its thorn\r\n00:51:17 - Scorpions - Holidays\r\n00:54:39 - Skidrow - 18 and life\r\n00:58:33 - Stratovarius - If the story is over\r\n01:03:01 - Warrant - Heaven\r\n01:07:14 - White lion - When the children cry\r\n01:11:38 - Whitesnake - Looking for love\r\n01:18:13 - Cinderella - Don´t know what you got\r\n01:24:07 - Queensryche - Silent lucidity\r\n01:29:59 - Firehouse - Love of a lifetime\r\n01:34:51 - Damn Yankees - High enough\r\n01:39:48 - Saigon kick - Love is on the way\r\n01:43:47 - Van Halen - I can´t stop loving you\r\n01:48:00 - Michael Kiske &amp; Amanda Sommerville - Silence","torrent":{"xt":"urn:btih:d80f7fba8d7a9e5b90b44fb217439bfda0834f88","amp;dn":"BALADAS+METAL","amp;tr":["udp%3A%2F%2Ftracker.leechers-paradise.org%3A6969","udp%3A%2F%2Fzer0day.ch%3A1337","udp%3A%2F%2Fopen.demonii.com%3A1337","udp%3A%2F%2Ftracker.coppersurfer.tk%3A6969","udp%3A%2F%2Fexodus.desync.com%3A6969"],"infoHash":"d80f7fba8d7a9e5b90b44fb217439bfda0834f88","infoHashBuffer":{"type":"Buffer","data":[216,15,127,186,141,122,158,91,144,180,79,178,23,67,155,253,160,131,79,136]},"announce":[],"urlList":[]}}